# xmcd
#
# Track frame offsets: 
#        150
#        14977
#        33977
#        50255
#        62595
#        89950
#        99095
#        107667
#        124929
#        138770
#        154255
#        166852
#        180920
#        196015
#        208595
#        222280
#        239720
#        255460
#
# Disc length: 3654 seconds
#
# Revision: 6
# Processed by: cddbd v1.5.2PL0 Copyright (c) Steve Scherf et al.
# Submitted via: ExactAudioCopy v0.95b4
#
DISCID=f70e4412
DTITLE=Various Artists / Ska: The Third Wave Vol. 1
DYEAR=1997
DGENRE=Ska
TTITLE0=Mephiskapheles  / Doomsday
TTITLE1=Mustard Plug / Too Stoopid
TTITLE2=Dance Hall Crashers / Othello
TTITLE3=The Insteps / Shotgun Jimmy
TTITLE4=Mephiskapheles / Saba
TTITLE5=The Scofflaws / After The Lights Go Down Low
TTITLE6=The Pietasters / Factory Concerto
TTITLE7=Skavoovie & The Epitones / Hi-Ball
TTITLE8=The Pietasters / Night Before
TTITLE9=The Scofflaws / William Shatner
TTITLE10=The Toasters / Dub 56
TTITLE11=MU330 / Stuff
TTITLE12=Ruder Than You / Swallow Blood
TTITLE13=The Toasters / Little Hidden Secrets
TTITLE14=Cherry Poppin' Daddies / Don Quixote
TTITLE15=The Rhyth-O-Matics / Miami Skaline
TTITLE16=Undercover Ska / My Girl Became A Dude (The Transexual Song)
TTITLE17=Buford O' Sullivan / I Gotta Do It (Someday)
EXTD=
EXTT0=
EXTT1=
EXTT2=
EXTT3=
EXTT4=
EXTT5=exclusive mix
EXTT6=exclusive mix (based on the tune "Powerhouse")
EXTT7=exclusive mix
EXTT8=
EXTT9=exclusive mix
EXTT10=exclusive mix
EXTT11=
EXTT12=
EXTT13=
EXTT14=bonus track
EXTT15=bonus track
EXTT16=bonus track
EXTT17=bonus track
PLAYORDER=
.
